<svg width="75" height="75" viewBox="0 0 75 75" fill="none" xmlns="http://www.w3.org/2000/svg">
<g clip-path="url(#clip0_2_81)">
<g filter="url(#filter0_d_2_81)">
<path d="M29.8242 7.48535C24.082 7.9834 19.0723 11.1768 16.0108 16.2744C14.3555 19.043 13.4912 22.6758 13.6817 26.001C13.8135 28.418 13.8135 28.4326 14.9561 28.667C16.2012 28.916 17.1533 29.2236 18.3399 29.7656L19.336 30.2197L20.3174 29.7656C22.6611 28.7109 24.5801 28.3447 27.3486 28.4619C28.9307 28.5205 29.6485 28.623 30.6592 28.916C35.9766 30.498 39.7412 34.3652 41.1914 39.7559C41.4551 40.7373 41.5137 41.3525 41.5283 43.2861C41.5283 45.8643 41.3379 46.9629 40.5615 48.8965C39.7705 50.8887 38.9942 52.0459 36.9434 54.3018L35.7129 55.6641L37.002 57.0703C39.4922 59.7803 40.3272 60.3076 42.0117 60.1758C43.667 60.0586 43.6377 60.0879 51.8262 51.3428C55.9863 46.9189 59.8096 42.8467 60.3223 42.3047L61.2598 41.3232L59.6045 39.5508C56.8213 36.5918 56.25 35.5078 56.1328 33.0176C56.0596 31.3184 56.2647 30.3809 57.0264 28.9307C57.5977 27.8613 58.8574 26.5723 59.9414 25.9424C60.3955 25.6934 61.3184 25.3418 61.9922 25.166C63.4424 24.7998 64.8926 24.8584 66.3281 25.3564C67.2071 25.6494 67.2949 25.6494 67.8662 25.4297C68.2031 25.3125 68.7598 25.166 69.1113 25.1074C69.4483 25.0488 69.7705 24.9609 69.7998 24.9023C69.9463 24.668 69.5654 21.8701 69.2139 20.5518C67.6758 14.7656 63.0762 9.99023 57.3487 8.21777C55.3858 7.61719 54.1846 7.44141 52.002 7.44141C48.9551 7.44141 46.2305 8.14453 43.4326 9.66797C42.6709 10.0635 41.9238 10.4004 41.7481 10.4004C41.5723 10.4004 40.752 10.0488 39.9317 9.60938C36.7822 7.91016 33.2959 7.17773 29.8242 7.48535Z" fill="#E798B9"/>
</g>
<g filter="url(#filter1_d_2_81)">
<path d="M63.0908 28.2715C61.2891 28.7256 59.7803 30.3808 59.4873 32.2119C59.3262 33.1933 59.5459 34.4678 60 35.2881C60.3662 35.9765 66.123 42.2314 66.7236 42.6123C66.9141 42.7295 67.207 42.7734 67.4121 42.7295C67.6318 42.6709 69.0381 41.2939 70.9717 39.2285C74.6924 35.2441 74.9268 34.8926 74.9268 33.0322C74.9268 32.0654 74.8535 31.7138 74.5459 31.04C74.0478 29.9707 73.1396 29.0771 72.085 28.5937C70.9131 28.0371 69.2871 28.0517 68.042 28.623L67.1777 29.0185L66.2988 28.623C65.3467 28.1982 63.999 28.0517 63.0908 28.2715Z" fill="#E798B9"/>
</g>
<g filter="url(#filter2_d_2_81)">
<path d="M10.2539 31.4502C6.22559 32.124 2.79785 34.7461 1.09863 38.4375C0.27832 40.1953 0.0878906 41.1475 0.0878906 43.3594C0.0878906 44.9707 0.146484 45.542 0.410156 46.4795C0.834961 47.959 1.71387 49.6875 2.59277 50.7861C4.02832 52.5586 17.9297 67.2217 18.3398 67.3975C18.8818 67.6172 19.79 67.6172 20.3467 67.3975C20.7715 67.207 34.6875 52.5293 36.123 50.7422C37.0166 49.5996 37.8223 48.0176 38.2617 46.4795C38.7305 44.8242 38.7305 41.8799 38.2617 40.21C37.7344 38.3643 36.7236 36.6064 35.4053 35.2002C33.1201 32.7979 30.5713 31.582 27.4365 31.3916C25.0195 31.2451 22.7637 31.7432 20.7568 32.8711C19.5703 33.5303 19.1016 33.5449 17.9443 32.9004C16.7432 32.2266 15.6592 31.8311 14.2822 31.5674C13.2422 31.3623 11.1182 31.3037 10.2539 31.4502Z" fill="#E798B9"/>
</g>
</g>
<defs>
<filter id="filter0_d_2_81" x="9.65567" y="7.41687" width="64.1764" height="60.7774" filterUnits="userSpaceOnUse" color-interpolation-filters="sRGB">
<feFlood flood-opacity="0" result="BackgroundImageFix"/>
<feColorMatrix in="SourceAlpha" type="matrix" values="0 0 0 0 0 0 0 0 0 0 0 0 0 0 0 0 0 0 127 0" result="hardAlpha"/>
<feOffset dy="4"/>
<feGaussianBlur stdDeviation="2"/>
<feComposite in2="hardAlpha" operator="out"/>
<feColorMatrix type="matrix" values="0 0 0 0 0.905882 0 0 0 0 0.596078 0 0 0 0 0.72549 0 0 0 0.25 0"/>
<feBlend mode="normal" in2="BackgroundImageFix" result="effect1_dropShadow_2_81"/>
<feBlend mode="normal" in="SourceGraphic" in2="effect1_dropShadow_2_81" result="shape"/>
</filter>
<filter id="filter1_d_2_81" x="55.4347" y="28.1701" width="23.4921" height="22.5761" filterUnits="userSpaceOnUse" color-interpolation-filters="sRGB">
<feFlood flood-opacity="0" result="BackgroundImageFix"/>
<feColorMatrix in="SourceAlpha" type="matrix" values="0 0 0 0 0 0 0 0 0 0 0 0 0 0 0 0 0 0 127 0" result="hardAlpha"/>
<feOffset dy="4"/>
<feGaussianBlur stdDeviation="2"/>
<feComposite in2="hardAlpha" operator="out"/>
<feColorMatrix type="matrix" values="0 0 0 0 0.905882 0 0 0 0 0.596078 0 0 0 0 0.72549 0 0 0 0.25 0"/>
<feBlend mode="normal" in2="BackgroundImageFix" result="effect1_dropShadow_2_81"/>
<feBlend mode="normal" in="SourceGraphic" in2="effect1_dropShadow_2_81" result="shape"/>
</filter>
<filter id="filter2_d_2_81" x="-3.91211" y="31.3666" width="46.5254" height="44.1956" filterUnits="userSpaceOnUse" color-interpolation-filters="sRGB">
<feFlood flood-opacity="0" result="BackgroundImageFix"/>
<feColorMatrix in="SourceAlpha" type="matrix" values="0 0 0 0 0 0 0 0 0 0 0 0 0 0 0 0 0 0 127 0" result="hardAlpha"/>
<feOffset dy="4"/>
<feGaussianBlur stdDeviation="2"/>
<feComposite in2="hardAlpha" operator="out"/>
<feColorMatrix type="matrix" values="0 0 0 0 0.905882 0 0 0 0 0.596078 0 0 0 0 0.72549 0 0 0 0.25 0"/>
<feBlend mode="normal" in2="BackgroundImageFix" result="effect1_dropShadow_2_81"/>
<feBlend mode="normal" in="SourceGraphic" in2="effect1_dropShadow_2_81" result="shape"/>
</filter>
<clipPath id="clip0_2_81">
<rect width="75" height="75" fill="white"/>
</clipPath>
</defs>
</svg>
