<svg width="58" height="58" viewBox="0 0 58 58" fill="none" xmlns="http://www.w3.org/2000/svg">
<g filter="url(#filter0_d_2_76)">
<circle cx="29" cy="22" r="19" fill="#F5F5F5"/>
<path d="M17.6159 0.181015C14.811 0.730843 12.6316 1.72675 10.4815 3.44885C7.84276 5.56517 5.91745 8.3973 4.88149 11.6548C3.73803 15.2234 3.70871 18.8959 4.78376 22.4957C5.37992 24.5083 6.61134 26.8321 7.93072 28.4297C8.28256 28.8654 12.4459 33.6063 17.1762 38.9594C23.431 46.0449 25.9329 48.8148 26.3825 49.1364C27.9657 50.2879 30.0377 50.2879 31.6209 49.1364C32.0705 48.8148 34.5724 46.0449 40.8273 38.9594C45.5575 33.6063 49.7208 28.8654 50.0727 28.4297C52.858 25.0477 54.3142 20.3068 53.9429 15.8666C53.7963 14.1342 53.6106 13.1901 53.1219 11.6548C51.3921 6.21873 47.043 1.91349 41.8241 0.512985C40.2115 0.0772743 39.1267 -0.0472145 37.26 0.0150299C35.4031 0.0772743 34.3574 0.253632 32.7839 0.772339C31.9043 1.07318 30.2331 1.87199 29.4806 2.36995L29.0017 2.68117L28.5228 2.36995C27.1741 1.48815 25.2781 0.710094 23.4603 0.284756C22.0725 -0.0264664 18.994 -0.0887108 17.6159 0.181015ZM24.9458 13.5221C25.1706 13.6362 26.0991 14.518 27.1741 15.6384L29.0017 17.5472L30.8391 15.6384C31.9141 14.5076 32.823 13.6362 33.0576 13.5221C34.719 12.6922 36.6248 13.9682 36.6248 15.8978C36.615 16.9455 36.4293 17.2464 34.3965 19.4042L32.5787 21.3545L34.4063 23.3049C35.6377 24.6327 36.2925 25.4108 36.4293 25.722C36.6443 26.2304 36.6834 27.0914 36.5271 27.7035C36.3902 28.2222 35.6475 29.0729 35.1393 29.2907C34.5333 29.5501 33.6049 29.5293 33.0869 29.2492C32.8426 29.1144 31.9043 28.2118 30.8391 27.081L29.0017 25.1411L27.1741 27.081C26.0991 28.2118 25.1608 29.1144 24.9165 29.2492C24.3985 29.5293 23.4701 29.5501 22.8641 29.2907C22.3559 29.0729 21.6132 28.2222 21.4764 27.7035C21.32 27.0914 21.3591 26.2304 21.5741 25.722C21.7109 25.4108 22.3657 24.6327 23.5971 23.3049L25.4247 21.3545L23.6069 19.4042C21.5741 17.2464 21.3884 16.9455 21.3786 15.8978C21.3786 14.7981 22.0334 13.7918 23.001 13.408C23.4994 13.2109 24.4474 13.2731 24.9458 13.5221Z" fill="#E798B9"/>
</g>
<defs>
<filter id="filter0_d_2_76" x="0" y="0" width="58" height="58" filterUnits="userSpaceOnUse" color-interpolation-filters="sRGB">
<feFlood flood-opacity="0" result="BackgroundImageFix"/>
<feColorMatrix in="SourceAlpha" type="matrix" values="0 0 0 0 0 0 0 0 0 0 0 0 0 0 0 0 0 0 127 0" result="hardAlpha"/>
<feOffset dy="4"/>
<feGaussianBlur stdDeviation="2"/>
<feComposite in2="hardAlpha" operator="out"/>
<feColorMatrix type="matrix" values="0 0 0 0 0.905882 0 0 0 0 0.596078 0 0 0 0 0.72549 0 0 0 0.25 0"/>
<feBlend mode="normal" in2="BackgroundImageFix" result="effect1_dropShadow_2_76"/>
<feBlend mode="normal" in="SourceGraphic" in2="effect1_dropShadow_2_76" result="shape"/>
</filter>
</defs>
</svg>
