<svg width="50" height="50" viewBox="0 0 50 50" fill="none" xmlns="http://www.w3.org/2000/svg">
<path d="M13.6159 0.181015C10.811 0.730843 8.63162 1.72675 6.48152 3.44885C3.84276 5.56517 1.91745 8.3973 0.88149 11.6548C-0.261972 15.2234 -0.291292 18.8959 0.783758 22.4957C1.37992 24.5083 2.61134 26.8321 3.93072 28.4297C4.28256 28.8654 8.44593 33.6063 13.1762 38.9594C19.431 46.0449 21.9329 48.8148 22.3825 49.1364C23.9657 50.2879 26.0377 50.2879 27.6209 49.1364C28.0705 48.8148 30.5724 46.0449 36.8273 38.9594C41.5575 33.6063 45.7208 28.8654 46.0727 28.4297C48.858 25.0477 50.3142 20.3068 49.9429 15.8666C49.7963 14.1342 49.6106 13.1901 49.1219 11.6548C47.3921 6.21873 43.043 1.91349 37.8241 0.512985C36.2115 0.0772743 35.1267 -0.0472145 33.26 0.0150299C31.4031 0.0772743 30.3574 0.253632 28.7839 0.772339C27.9043 1.07318 26.2331 1.87199 25.4806 2.36995L25.0017 2.68117L24.5228 2.36995C23.1741 1.48815 21.2781 0.710094 19.4603 0.284756C18.0725 -0.0264664 14.994 -0.0887108 13.6159 0.181015ZM20.9458 13.5221C21.1706 13.6362 22.0991 14.518 23.1741 15.6384L25.0017 17.5472L26.8391 15.6384C27.9141 14.5076 28.823 13.6362 29.0576 13.5221C30.719 12.6922 32.6248 13.9682 32.6248 15.8978C32.615 16.9455 32.4293 17.2464 30.3965 19.4042L28.5787 21.3545L30.4063 23.3049C31.6377 24.6327 32.2925 25.4108 32.4293 25.722C32.6443 26.2304 32.6834 27.0914 32.5271 27.7035C32.3902 28.2222 31.6475 29.0729 31.1393 29.2907C30.5333 29.5501 29.6049 29.5293 29.0869 29.2492C28.8426 29.1144 27.9043 28.2118 26.8391 27.081L25.0017 25.1411L23.1741 27.081C22.0991 28.2118 21.1608 29.1144 20.9165 29.2492C20.3985 29.5293 19.4701 29.5501 18.8641 29.2907C18.3559 29.0729 17.6132 28.2222 17.4764 27.7035C17.32 27.0914 17.3591 26.2304 17.5741 25.722C17.7109 25.4108 18.3657 24.6327 19.5971 23.3049L21.4247 21.3545L19.6069 19.4042C17.5741 17.2464 17.3884 16.9455 17.3786 15.8978C17.3786 14.7981 18.0334 13.7918 19.001 13.408C19.4994 13.2109 20.4474 13.2731 20.9458 13.5221Z" fill="#E798B9"/>
</svg>
