<svg width="58" height="58" viewBox="0 0 58 58" fill="none" xmlns="http://www.w3.org/2000/svg">
<g filter="url(#filter0_d_2_73)">
<circle cx="29" cy="22" r="19" fill="#F5F5F5"/>
<path d="M19.1325 0.0434837C13.8157 0.440392 9.13416 3.42229 6.30959 8.21572C4.57967 11.1569 3.73914 15.0141 4.07144 18.4946C4.40374 21.9345 5.69386 25.1607 7.76586 27.7355C8.09816 28.1426 12.6233 33.1904 17.8229 38.9609C28.3686 50.6646 27.6746 49.9929 29.0038 49.9929C30.3331 49.9929 29.6391 50.6646 40.1848 38.9609C45.3844 33.1904 49.9095 28.1426 50.2418 27.7355C55.6173 21.0593 55.1775 11.1467 49.2352 4.95904C44.192 -0.292362 36.5588 -1.49326 30.206 1.95679L29.0038 2.60812L27.8115 1.95679C25.0455 0.460747 22.1232 -0.180412 19.1325 0.0434837ZM40.6931 11.6556C41.9147 12.3069 42.4132 13.8844 41.7975 15.1667C41.6606 15.4517 39.2172 18.0672 34.1545 23.3491C26.0229 31.8165 26.3259 31.5417 25.1922 31.5417C24.1562 31.5417 23.9607 31.3891 20.9309 28.2443C18.077 25.293 17.7447 24.8553 17.6176 23.9699C17.4124 22.5146 18.6634 21.0389 20.1001 21.0389C21.0091 21.0389 21.3023 21.2526 23.3156 23.3186L25.1922 25.2523L31.7209 18.4641C35.3078 14.7291 38.2692 11.676 38.2887 11.676C38.3181 11.676 38.5135 11.6047 38.7286 11.5233C39.2466 11.3198 40.175 11.3808 40.6931 11.6556Z" fill="#E798B9"/>
</g>
<defs>
<filter id="filter0_d_2_73" x="0" y="0" width="58" height="58" filterUnits="userSpaceOnUse" color-interpolation-filters="sRGB">
<feFlood flood-opacity="0" result="BackgroundImageFix"/>
<feColorMatrix in="SourceAlpha" type="matrix" values="0 0 0 0 0 0 0 0 0 0 0 0 0 0 0 0 0 0 127 0" result="hardAlpha"/>
<feOffset dy="4"/>
<feGaussianBlur stdDeviation="2"/>
<feComposite in2="hardAlpha" operator="out"/>
<feColorMatrix type="matrix" values="0 0 0 0 0.905882 0 0 0 0 0.596078 0 0 0 0 0.72549 0 0 0 0.25 0"/>
<feBlend mode="normal" in2="BackgroundImageFix" result="effect1_dropShadow_2_73"/>
<feBlend mode="normal" in="SourceGraphic" in2="effect1_dropShadow_2_73" result="shape"/>
</filter>
</defs>
</svg>
