<svg width="212" height="327" viewBox="0 0 212 327" fill="none" xmlns="http://www.w3.org/2000/svg">
<g clip-path="url(#clip0_2_67)">
<path d="M156.636 66.4633C147.228 89.7255 145.568 118.526 144.461 144.004C143.908 152.312 140.034 147.327 138.927 146.219C123.432 119.634 92.4417 73.1097 74.1794 58.7093C60.3444 44.8628 19.3927 12.1849 0.0236816 1.10773C6.11109 92.4948 70.859 132.927 114.024 145.112C115.131 145.665 115.131 146.773 114.578 146.773C92.9951 147.327 77.4998 153.973 65.325 160.62C38.2084 175.574 29.9073 199.39 31.0141 213.237C32.6743 233.176 62.0046 252.561 87.4611 255.884C85.2475 259.761 78.6066 265.853 81.3736 275.823C83.5872 283.577 84.694 285.238 91.3349 281.915C97.9757 278.592 109.044 272.5 111.811 270.838C114.578 269.176 118.452 266.407 120.665 268.069C123.432 269.73 122.325 271.946 120.665 274.161C119.005 275.823 116.238 285.792 119.558 286.9C121.772 287.454 150.549 276.377 166.044 269.176C174.345 264.746 174.898 263.084 177.665 253.668C192.607 204.929 182.646 177.236 161.617 157.85C180.432 139.573 192.607 125.173 200.908 94.7102C204.782 80.8637 205.335 62.5863 207.549 42.6473C208.656 28.8008 210.316 14.4004 211.976 5.72205e-06C188.733 16.062 167.704 39.3241 156.636 66.4633ZM79.16 202.713C71.4124 202.713 65.325 196.621 65.325 188.867C65.325 181.113 71.4124 175.02 79.16 175.02C86.9077 175.02 92.9951 181.113 92.9951 188.867C92.9951 196.067 86.9077 202.713 79.16 202.713Z" fill="#E798B9" fill-opacity="0.1"/>
<path d="M60.8978 279.7L62.558 317.916C66.9852 314.593 70.859 311.27 75.2862 307.947C85.2474 301.3 86.9076 304.07 95.7621 311.824L109.044 326.224L108.49 282.469C104.616 284.685 101.849 287.454 97.9757 290.223C84.694 299.085 85.2474 299.639 72.5192 290.223L60.8978 279.7ZM119.558 297.977L120.112 307.947L172.131 293.546L171.578 284.131L119.558 297.977Z" fill="#E798B9" fill-opacity="0.1"/>
</g>
<defs>
<clipPath id="clip0_2_67">
<rect width="212" height="326.224" fill="white"/>
</clipPath>
</defs>
</svg>
